<svg width="40" height="40" viewBox="0 0 40 40" fill="none" xmlns="http://www.w3.org/2000/svg">
<g clip-path="url(#clip0_468_4292)">
<path d="M18.3333 35V21.7083C16.5556 21.7083 14.8472 21.3681 13.2083 20.6875C11.5694 20.0069 10.125 19.0417 8.875 17.7917C7.625 16.5417 6.66667 15.0972 6 13.4583C5.33333 11.8194 5 10.1111 5 8.33333V5H8.33333C10.0833 5 11.7778 5.34028 13.4167 6.02083C15.0556 6.70139 16.5 7.66667 17.75 8.91667C18.6111 9.77778 19.3264 10.7222 19.8958 11.75C20.4653 12.7778 20.9028 13.875 21.2083 15.0417C21.3472 14.8472 21.5 14.6597 21.6667 14.4792C21.8333 14.2986 22.0139 14.1111 22.2083 13.9167C23.4583 12.6667 24.9028 11.7014 26.5417 11.0208C28.1806 10.3403 29.8889 10 31.6667 10H35V13.3333C35 15.1111 34.6597 16.8194 33.9792 18.4583C33.2986 20.0972 32.3333 21.5417 31.0833 22.7917C29.8333 24.0417 28.3958 25 26.7708 25.6667C25.1458 26.3333 23.4444 26.6667 21.6667 26.6667V35H18.3333Z" fill="#009951"/>
</g>
<path d="M18.3334 34.9998V21.7081L18.334 21.6667C18.334 21.6667 19.1673 17.5 21.2084 15.0415C21.3473 14.847 21.5 14.6595 21.6667 14.479C21.8334 14.2984 22.0139 14.1109 22.2084 13.9165C23.4584 12.6665 24.9028 11.7012 26.5417 11.0207C28.1806 10.3401 29.8889 9.99982 31.6667 9.99982H35V13.3331C35 15.1109 34.6598 16.8193 33.9792 18.4581C33.2987 20.097 32.3334 21.5415 31.0834 22.7915C29.8334 24.0415 28.3959 24.9998 26.7709 25.6665C25.1459 26.3331 23.4445 26.6665 21.6667 26.6665V34.9998H18.3334Z" fill="#14AE5C"/>
<path fill-rule="evenodd" clip-rule="evenodd" d="M32.5 35H5.83337C5.83337 31.3181 11.8029 28.3333 19.1667 28.3333C26.5305 28.3333 32.5 31.3181 32.5 35Z" fill="#522504"/>
<path fill-rule="evenodd" clip-rule="evenodd" d="M35.8333 35H9.16663C9.16663 31.3181 15.1362 28.3333 22.5 28.3333C29.8638 28.3333 35.8333 31.3181 35.8333 35Z" fill="#975102"/>
<defs>
<clipPath id="clip0_468_4292">
<rect width="40" height="40" fill="white"/>
</clipPath>
</defs>
</svg>
