<svg width="43" height="44" viewBox="0 0 43 44" fill="none" xmlns="http://www.w3.org/2000/svg">
<circle cx="12" cy="12.25" r="12" fill="#975102"/>
<path d="M14.55 16.8L15.95 15.375L13 12.425V8.25H11V13.25L14.55 16.8ZM11 6.25H13V4.25H11V6.25ZM18 13.25H20V11.25H18V13.25ZM11 20.25H13V18.25H11V20.25ZM4 13.25H6V11.25H4V13.25ZM12 22.25C10.6167 22.25 9.31667 21.9875 8.1 21.4625C6.88333 20.9375 5.825 20.225 4.925 19.325C4.025 18.425 3.3125 17.3667 2.7875 16.15C2.2625 14.9333 2 13.6333 2 12.25C2 10.8667 2.2625 9.56667 2.7875 8.35C3.3125 7.13333 4.025 6.075 4.925 5.175C5.825 4.275 6.88333 3.5625 8.1 3.0375C9.31667 2.5125 10.6167 2.25 12 2.25C13.3833 2.25 14.6833 2.5125 15.9 3.0375C17.1167 3.5625 18.175 4.275 19.075 5.175C19.975 6.075 20.6875 7.13333 21.2125 8.35C21.7375 9.56667 22 10.8667 22 12.25C22 13.6333 21.7375 14.9333 21.2125 16.15C20.6875 17.3667 19.975 18.425 19.075 19.325C18.175 20.225 17.1167 20.9375 15.9 21.4625C14.6833 21.9875 13.3833 22.25 12 22.25Z" fill="white"/>
<g clip-path="url(#clip0_443_6096)">
<path d="M15.75 39.5V33.5188C14.95 33.5188 14.1813 33.3656 13.4438 33.0594C12.7063 32.7531 12.0563 32.3188 11.4938 31.7563C10.9313 31.1938 10.5 30.5438 10.2 29.8063C9.9 29.0688 9.75 28.3 9.75 27.5V26H11.25C12.0375 26 12.8 26.1531 13.5375 26.4594C14.275 26.7656 14.925 27.2 15.4875 27.7625C15.875 28.15 16.1969 28.575 16.4531 29.0375C16.7094 29.5 16.9063 29.9938 17.0438 30.5188C17.1063 30.4313 17.175 30.3469 17.25 30.2656C17.325 30.1844 17.4063 30.1 17.4938 30.0125C18.0563 29.45 18.7063 29.0156 19.4438 28.7094C20.1813 28.4031 20.95 28.25 21.75 28.25H23.25V29.75C23.25 30.55 23.0969 31.3188 22.7906 32.0563C22.4844 32.7938 22.05 33.4438 21.4875 34.0063C20.925 34.5688 20.2781 35 19.5469 35.3C18.8156 35.6 18.05 35.75 17.25 35.75V39.5H15.75Z" fill="#14AE5C"/>
</g>
<path d="M15.5 39.75V33.37L15.5003 33.3501C15.5003 33.3501 15.9003 31.3501 16.88 30.17C16.9467 30.0767 17.02 29.9867 17.1 29.9C17.18 29.8133 17.2667 29.7233 17.36 29.63C17.96 29.03 18.6533 28.5667 19.44 28.24C20.2267 27.9133 21.0467 27.75 21.9 27.75H23.5V29.35C23.5 30.2033 23.3367 31.0233 23.01 31.81C22.6833 32.5967 22.22 33.29 21.62 33.89C21.02 34.49 20.33 34.95 19.55 35.27C18.77 35.59 17.9533 35.75 17.1 35.75V39.75H15.5Z" fill="#009951"/>
<g clip-path="url(#clip1_443_6096)">
<path d="M30.25 39.5V33.5188C29.45 33.5188 28.6813 33.3656 27.9438 33.0594C27.2063 32.7531 26.5563 32.3188 25.9938 31.7563C25.4313 31.1938 25 30.5438 24.7 29.8063C24.4 29.0688 24.25 28.3 24.25 27.5V26H25.75C26.5375 26 27.3 26.1531 28.0375 26.4594C28.775 26.7656 29.425 27.2 29.9875 27.7625C30.375 28.15 30.6969 28.575 30.9531 29.0375C31.2094 29.5 31.4063 29.9938 31.5438 30.5188C31.6063 30.4313 31.675 30.3469 31.75 30.2656C31.825 30.1844 31.9063 30.1 31.9938 30.0125C32.5563 29.45 33.2063 29.0156 33.9438 28.7094C34.6813 28.4031 35.45 28.25 36.25 28.25H37.75V29.75C37.75 30.55 37.5969 31.3188 37.2906 32.0563C36.9844 32.7938 36.55 33.4438 35.9875 34.0063C35.425 34.5688 34.7781 35 34.0469 35.3C33.3156 35.6 32.55 35.75 31.75 35.75V39.5H30.25Z" fill="#14AE5C"/>
</g>
<g clip-path="url(#clip2_443_6096)">
<path d="M30.25 31.5V25.5187C29.45 25.5187 28.6813 25.3656 27.9437 25.0594C27.2062 24.7531 26.5562 24.3187 25.9937 23.7562C25.4312 23.1937 25 22.5437 24.7 21.8062C24.4 21.0687 24.25 20.3 24.25 19.5V18H25.75C26.5375 18 27.3 18.1531 28.0375 18.4594C28.775 18.7656 29.425 19.2 29.9875 19.7625C30.375 20.15 30.6969 20.575 30.9531 21.0375C31.2094 21.5 31.4062 21.9937 31.5437 22.5187C31.6062 22.4313 31.675 22.3469 31.75 22.2656C31.825 22.1844 31.9062 22.1 31.9937 22.0125C32.5562 21.45 33.2063 21.0156 33.9437 20.7094C34.6812 20.4031 35.45 20.25 36.25 20.25H37.75V21.75C37.75 22.55 37.5969 23.3187 37.2906 24.0562C36.9844 24.7937 36.55 25.4437 35.9875 26.0062C35.425 26.5687 34.7781 27 34.0469 27.3C33.3156 27.6 32.3 27.75 31.5 27.75L31.5438 31.5L30.25 31.5Z" fill="#14AE5C"/>
</g>
<path d="M30 39.75V33.37L30.0003 33.3501C30.0003 33.3501 30.4003 31.3501 31.38 30.17C31.4467 30.0767 31.52 29.9867 31.6 29.9C31.68 29.8133 31.7667 29.7233 31.86 29.63C32.46 29.03 33.1533 28.5667 33.94 28.24C34.7267 27.9133 35.5467 27.75 36.4 27.75H38V29.35C38 30.2033 37.8367 31.0233 37.51 31.81C37.1833 32.5967 36.72 33.29 36.12 33.89C35.52 34.49 34.83 34.95 34.05 35.27C33.27 35.59 32.4533 35.75 31.6 35.75V39.75H30Z" fill="#009951"/>
<path d="M30 33.75V25.37L30.0003 25.3501C30.0003 25.3501 30.4003 23.3501 31.38 22.17C31.4467 22.0767 31.52 21.9867 31.6 21.9C31.68 21.8133 31.7667 21.7233 31.86 21.63C32.46 21.03 33.1533 20.5667 33.94 20.24C34.7267 19.9133 35.5467 19.75 36.4 19.75H38V21.35C38 22.2033 37.8367 23.0233 37.51 23.81C37.1833 24.5967 36.72 25.29 36.12 25.89C35.52 26.49 34.83 26.95 34.05 27.27C33.27 27.59 32.4533 27.75 31.6 27.75V31.75L30 33.75Z" fill="#009951"/>
<path fill-rule="evenodd" clip-rule="evenodd" d="M35.7222 40.75C35.7222 38.5409 29.2925 36.75 21.3611 36.75C13.4297 36.75 7 38.5409 7 40.75H35.7222Z" fill="#975102"/>
<path fill-rule="evenodd" clip-rule="evenodd" d="M39.0001 40.75C39.0001 38.5409 33.13 36.75 25.8889 36.75C18.6479 36.75 12.7778 38.5409 12.7778 40.75H39.0001Z" fill="#522504"/>
<defs>
<clipPath id="clip0_443_6096">
<rect width="18" height="18" fill="white" transform="translate(7.5 23.75)"/>
</clipPath>
<clipPath id="clip1_443_6096">
<rect width="18" height="18" fill="white" transform="translate(22 23.75)"/>
</clipPath>
<clipPath id="clip2_443_6096">
<rect width="18" height="18" fill="white" transform="translate(22 15.75)"/>
</clipPath>
</defs>
</svg>
