<svg width="40" height="40" viewBox="0 0 40 40" fill="none" xmlns="http://www.w3.org/2000/svg">
<g clip-path="url(#clip0_443_5840)">
<path d="M26.1376 18.0207C24.4343 17.5643 23.1232 16.678 22.2042 15.3618C21.2852 14.0457 21.0177 12.6711 21.4017 11.238C21.7102 10.0867 22.3907 9.16298 23.4432 8.46696C24.4956 7.77094 25.7196 7.43924 27.1152 7.47185C28.5107 7.50439 29.3828 7.65614 30.6647 8.46232C31.8539 9.14854 32.7209 10.0471 33.2658 11.158C33.8107 12.2689 33.9322 13.3878 33.6302 14.5146C33.2463 15.9477 32.3273 17.0044 30.8734 17.6847C29.4194 18.3651 27.8408 18.477 26.1376 18.0207Z" fill="#EC221F"/>
<path d="M26.5743 18.1377C24.9927 17.7139 24.0763 16.1654 23.8291 15.7768C22.9983 14.4707 22.7773 13.0919 23.1662 11.6406C23.4786 10.4746 24.1338 9.53003 25.1316 8.80692C26.1295 8.08382 27.2799 7.724 28.583 7.72748C29.886 7.73089 30.6976 7.86536 31.8781 8.6503C32.9746 9.31637 33.7657 10.2031 34.2514 11.3104C34.7371 12.4177 34.827 13.542 34.5212 14.6832C34.1324 16.1345 33.2516 17.2181 31.879 17.9338C30.5064 18.6496 28.1559 18.5615 26.5743 18.1377Z" fill="#FF3B30"/>
<path d="M29.0306 5.71196C28.9533 5.774 28.8755 5.82762 28.7972 5.87283C27.8052 6.44554 26.775 6.83149 25.7066 7.03066C24.6382 7.22983 23.5728 7.25327 22.5103 7.10097C23.36 7.75895 24.2972 8.21418 25.3218 8.46666C25.4932 8.50888 25.665 8.54537 25.8373 8.57611C25.1793 8.97972 24.4781 9.29537 23.7336 9.52306C24.6731 9.74359 25.6049 9.7748 26.5288 9.61669C27.4527 9.45858 28.3052 9.14481 29.0863 8.67538C29.1192 8.65564 29.1518 8.63567 29.1843 8.61546C29.2023 8.6492 29.2206 8.68282 29.2392 8.71634C29.6809 9.51343 30.2624 10.2114 30.9835 10.8103C31.7046 11.4092 32.527 11.848 33.4509 12.1268C32.9206 11.558 32.4715 10.9347 32.1037 10.257C32.262 10.3138 32.4226 10.3657 32.5854 10.4129C33.599 10.7066 34.6382 10.7809 35.7031 10.636C34.7068 10.2366 33.7958 9.68361 32.9702 8.97692C32.1445 8.27023 31.4453 7.42091 30.8726 6.42894C30.8699 6.42425 30.8672 6.41954 30.8645 6.4148C30.9642 6.24549 31.0572 6.07268 31.1435 5.89636C31.363 5.44767 31.5362 4.98656 31.6631 4.51304C31.7238 4.28657 31.6901 4.0624 31.5619 3.84051C31.4338 3.61862 31.2566 3.47734 31.0301 3.41666C30.8036 3.35598 30.5794 3.38969 30.3576 3.5178C30.1357 3.6459 29.9944 3.82319 29.9337 4.04965C29.8123 4.50258 29.6428 4.93984 29.425 5.36142C29.3209 5.56298 29.2072 5.57021 29.0306 5.71196Z" fill="#14AE5C"/>
<path d="M6.27234 15.3076L18.6721 8.1486C18.6721 8.1486 17.7503 12.8607 18.8407 15.3528C19.6075 17.1052 21.0005 19.4051 21.7227 20.5589C21.9853 20.9784 21.9107 21.528 21.5303 21.8446C20.8857 22.3808 19.8822 23.1764 19.0682 23.6464C18.2588 24.1137 17.0769 24.5823 16.2902 24.8727C15.82 25.0463 15.301 24.8289 15.0725 24.3828C14.4497 23.1668 13.1903 20.8029 12.0606 19.2673C10.4451 17.0715 6.27234 15.3076 6.27234 15.3076Z" fill="#34C759"/>
<path d="M13.7438 17.3432C13.7438 17.3432 12.4829 16.7853 12.049 16.4729C11.4708 16.0567 10.7125 15.2069 10.7125 15.2069L11.5913 14.3345C11.5913 14.3345 12.4078 15.0564 12.7843 15.613C13.0525 16.0095 13.7438 17.3432 13.7438 17.3432Z" fill="#02542D"/>
<path d="M16.3314 15.7064C16.3314 15.7064 16.4779 14.3357 16.4243 13.8037C16.3527 13.095 15.996 12.0133 15.996 12.0133L14.803 12.3377C14.803 12.3377 15.02 13.4058 15.3136 14.0101C15.5227 14.4406 16.3314 15.7064 16.3314 15.7064Z" fill="#02542D"/>
<path d="M9.36872 16.1036L8.19288 16.7825C7.37959 17.252 6.52035 17.3648 5.61515 17.1207C4.70995 16.8767 4.02185 16.3468 3.55084 15.5309C3.21035 14.9412 3.0585 14.3048 3.09528 13.6217C3.13206 12.9387 3.35955 12.3257 3.77775 11.7829C3.44033 10.9948 3.40515 10.1927 3.67219 9.37671C3.93924 8.56071 4.44512 7.93773 5.18982 7.50778C5.93452 7.07782 6.72697 6.95121 7.56717 7.12794C8.40737 7.30467 9.08437 7.73617 9.59817 8.42243C10.2774 8.33169 10.922 8.44116 11.5319 8.75084C12.1419 9.06051 12.6171 9.51022 12.9576 10.1C13.4286 10.9158 13.5435 11.7767 13.3022 12.6826C13.061 13.5885 12.5337 14.2763 11.7204 14.7459L10.5446 15.4247L9.36872 16.1036Z" fill="#009951"/>
<path d="M16.2099 12.1538L15.0341 12.8327C14.2208 13.3023 13.3615 13.415 12.4563 13.171C11.5511 12.9269 10.863 12.397 10.392 11.5812C10.0515 10.9914 9.89968 10.355 9.93646 9.67198C9.97324 8.98892 10.2007 8.37596 10.6189 7.83308C10.2815 7.04499 10.2463 6.24294 10.5134 5.42694C10.7804 4.61094 11.2863 3.98796 12.031 3.55801C12.7757 3.12806 13.5682 3.00145 14.4084 3.17818C15.2486 3.35491 15.9256 3.7864 16.4394 4.47266C17.1186 4.38192 17.7632 4.49139 18.3731 4.80107C18.9831 5.11075 19.4583 5.56045 19.7988 6.1502C20.2698 6.96601 20.3846 7.82688 20.1434 8.73283C19.9022 9.63878 19.3749 10.3265 18.5616 10.7961L17.3857 11.475L16.2099 12.1538Z" fill="#009951"/>
<path d="M12.3029 13.2862L11.1271 13.9651C10.3138 14.4346 9.45455 14.5474 8.54935 14.3033C7.64415 14.0593 6.95605 13.5294 6.48504 12.7136C6.14456 12.1238 5.9927 11.4874 6.02948 10.8044C6.06626 10.1213 6.29375 9.50834 6.71196 8.96547C6.37454 8.17737 6.33935 7.37533 6.6064 6.55933C6.87345 5.74332 7.37932 5.12035 8.12402 4.69039C8.86872 4.26044 9.66117 4.13383 10.5014 4.31056C11.3416 4.48729 12.0186 4.91879 12.5324 5.60505C13.2116 5.51431 13.8562 5.62378 14.4661 5.93346C15.0761 6.24313 15.5513 6.69284 15.8918 7.28258C16.3628 8.09839 16.4777 8.95927 16.2364 9.86522C15.9952 10.7712 15.4679 11.4589 14.6546 11.9285L13.4788 12.6073L12.3029 13.2862Z" fill="#009951"/>
<path d="M37.6973 21.5022C37.8776 22.958 36.0657 24.2411 34.6123 26.2104C33.159 28.1797 31.2586 29.9275 28.9112 31.4538L23.2589 35.1291L17.9899 33.1229L18.2804 27.5016L23.9327 23.8263C26.2801 22.3 28.6498 21.2712 31.0418 20.7401C33.4338 20.2089 36.4359 20.7493 37.6973 21.5022Z" fill="#E8B931"/>
<path d="M37.6381 21.4836C37.7434 22.9007 36.9943 24.6143 35.3906 26.6243C33.787 28.6344 31.1141 30.2758 28.615 31.9008L22.7885 34.6116L17.909 34.3121L18.5175 28.7861L24.5349 24.8734C27.0339 23.2485 29.5285 22.11 32.0186 21.4582C34.5087 20.8063 36.3819 20.8147 37.6381 21.4836Z" fill="#FFCC00"/>
<path d="M17.2211 34.5644C17.336 34.5771 18.0704 35.4025 19.647 35.8351C22.2056 36.5222 26.1237 34.1071 27.8259 33.2676C28.6771 32.8478 33.764 30.6579 34.5655 31.0841C33.9721 30.1286 30.2335 29.3745 28.754 29.5512C26.1385 29.8635 20.6457 32.3388 19.6149 32.0813C19.5716 32.0705 19.5282 32.06 19.4848 32.0499C19.4977 32.0073 19.5103 31.9645 19.5226 31.9217C19.8145 30.9021 23.6621 27.8263 24.9773 25.5483C26.2925 23.2703 25.9268 19.49 25.3943 18.4995C25.3634 19.4043 23.4835 22.8635 18.7637 26.8207C15.8315 29.7906 16.2028 30.2019 16.2921 32.457C16.2904 32.4631 16.2888 32.4692 16.2871 32.4753C16.0654 32.5324 15.8465 32.5979 15.6301 32.6718C15.2631 33.7517 16.1712 34.6662 16.6072 34.5277C16.859 34.4478 16.9587 34.5355 17.2211 34.5644Z" fill="#14AE5C"/>
</g>
<defs>
<clipPath id="clip0_443_5840">
<rect width="40" height="40" fill="white"/>
</clipPath>
</defs>
</svg>
