<svg width="24" height="24" viewBox="0 0 24 24" fill="none" xmlns="http://www.w3.org/2000/svg">
<path d="M6 19C5.71667 19 5.47917 18.9042 5.2875 18.7125C5.09583 18.5208 5 18.2833 5 18C5 17.7167 5.09583 17.4792 5.2875 17.2875C5.47917 17.0958 5.71667 17 6 17C6.28333 17 6.52083 17.0958 6.7125 17.2875C6.90417 17.4792 7 17.7167 7 18C7 18.2833 6.90417 18.5208 6.7125 18.7125C6.52083 18.9042 6.28333 19 6 19ZM18 19C17.7167 19 17.4792 18.9042 17.2875 18.7125C17.0958 18.5208 17 18.2833 17 18C17 17.7167 17.0958 17.4792 17.2875 17.2875C17.4792 17.0958 17.7167 17 18 17C18.2833 17 18.5208 17.0958 18.7125 17.2875C18.9042 17.4792 19 17.7167 19 18C19 18.2833 18.9042 18.5208 18.7125 18.7125C18.5208 18.9042 18.2833 19 18 19ZM9 23C8.71667 23 8.47917 22.9042 8.2875 22.7125C8.09583 22.5208 8 22.2833 8 22C8 21.7167 8.09583 21.4792 8.2875 21.2875C8.47917 21.0958 8.71667 21 9 21C9.28333 21 9.52083 21.0958 9.7125 21.2875C9.90417 21.4792 10 21.7167 10 22C10 22.2833 9.90417 22.5208 9.7125 22.7125C9.52083 22.9042 9.28333 23 9 23ZM12 19C11.7167 19 11.4792 18.9042 11.2875 18.7125C11.0958 18.5208 11 18.2833 11 18C11 17.7167 11.0958 17.4792 11.2875 17.2875C11.4792 17.0958 11.7167 17 12 17C12.2833 17 12.5208 17.0958 12.7125 17.2875C12.9042 17.4792 13 17.7167 13 18C13 18.2833 12.9042 18.5208 12.7125 18.7125C12.5208 18.9042 12.2833 19 12 19ZM15 23C14.7167 23 14.4792 22.9042 14.2875 22.7125C14.0958 22.5208 14 22.2833 14 22C14 21.7167 14.0958 21.4792 14.2875 21.2875C14.4792 21.0958 14.7167 21 15 21C15.2833 21 15.5208 21.0958 15.7125 21.2875C15.9042 21.4792 16 21.7167 16 22C16 22.2833 15.9042 22.5208 15.7125 22.7125C15.5208 22.9042 15.2833 23 15 23ZM7.5 16C5.98333 16 4.6875 15.4625 3.6125 14.3875C2.5375 13.3125 2 12.0167 2 10.5C2 9.11667 2.45833 7.90833 3.375 6.875C4.29167 5.84167 5.425 5.23333 6.775 5.05C7.30833 4.1 8.0375 3.35417 8.9625 2.8125C9.8875 2.27083 10.9 2 12 2C13.5 2 14.8042 2.47917 15.9125 3.4375C17.0208 4.39583 17.6917 5.59167 17.925 7.025C19.075 7.125 20.0417 7.6 20.825 8.45C21.6083 9.3 22 10.3167 22 11.5C22 12.75 21.5625 13.8125 20.6875 14.6875C19.8125 15.5625 18.75 16 17.5 16H7.5Z" fill="#666666"/>
</svg>
