<svg width="24" height="24" viewBox="0 0 24 24" fill="none" xmlns="http://www.w3.org/2000/svg">
<path d="M6 20C4.9 20 3.95833 19.6083 3.175 18.825C2.39167 18.0417 2 17.1 2 16C2 14.9 2.39167 13.9583 3.175 13.175C3.95833 12.3917 4.9 12 6 12C6.8 12 7.5375 12.2167 8.2125 12.65C8.8875 13.0833 9.375 13.675 9.675 14.425L9.925 15H10.525C11.225 15 11.8125 15.2417 12.2875 15.725C12.7625 16.2083 13 16.8 13 17.5C13 18.2 12.7583 18.7917 12.275 19.275C11.7917 19.7583 11.2 20 10.5 20H6ZM14.975 17.2C14.9083 16.15 14.5292 15.2417 13.8375 14.475C13.1458 13.7083 12.275 13.2333 11.225 13.05C10.7083 12.15 10.0125 11.4375 9.1375 10.9125C8.2625 10.3875 7.3 10.0833 6.25 10C6.68333 8.78333 7.425 7.8125 8.475 7.0875C9.525 6.3625 10.7 6 12 6C13.6667 6 15.0833 6.58333 16.25 7.75C17.4167 8.91667 18 10.3333 18 12C18 13.0833 17.7333 14.0875 17.2 15.0125C16.6667 15.9375 15.925 16.6667 14.975 17.2ZM11 5V1H13V5H11ZM17.65 7.75L16.25 6.35L19.05 3.5L20.475 4.925L17.65 7.75ZM19 13V11H23V13H19ZM19.05 20.5L16.25 17.65L17.65 16.25L20.5 19.05L19.05 20.5ZM6.35 7.75L3.525 4.925L4.95 3.5L7.75 6.35L6.35 7.75Z" fill="#666666"/>
</svg>
